# AST/ASF file generated using VICON BodyLanguage
# -----------------------------------------------
:version 1.10
:name VICON
:units
  mass 1.0
  length 0.45
  angle deg
:documentation
   .ast/.asf automatically generated from VICON data using
   VICON BodyBuilder and BodyLanguage model FoxedUp or BRILLIANT.MOD
:root
   order TX TY TZ RX RY RZ
   axis XYZ
   position 0 0 0  
   orientation 0 0 0 
:bonedata
  begin
     id 1 
     name lhipjoint
     direction 0.711131 -0.61297 0.344326 
     length 2.29162 
     axis 0 0 0  XYZ
  end
  begin
     id 2 
     name lfemur
     direction 0.34202 -0.939693 0  
     length 6.71424  
     axis 0 0 20  XYZ
    dof rx ry rz
    limits (-160.0 20.0)
           (-70.0 70.0)
           (-60.0 70.0)
  end
  begin
     id 3 
     name ltibia
     direction 0.34202 -0.939693 0   
     length 6.7087   
     axis 0 0 20   XYZ
    dof rx
    limits (-10.0 170.0)
  end
  begin
     id 4 
     name lfoot
     direction 0.0230374 -0.0632947 0.997729   
     length 1.56743   
     axis -90 7.62852e-016 20   XYZ
    dof rx rz
    limits (-45.0 90.0)
           (-70.0 20.0)
  end
  begin
     id 5 
     name ltoes
     direction 1.53585e-011 -4.21885e-011 1   
     length 0.802914   
     axis -90 7.62852e-016 20   XYZ
    dof rx
    limits (-90.0 20.0)
  end
  begin
     id 6 
     name rhipjoint
     direction -0.733192 -0.592884 0.333043   
     length 2.36925  
     axis 0 0 0  XYZ 
  end
  begin
     id 7 
     name rfemur
     direction -0.34202 -0.939693 0   
     length 6.67027   
     axis 0 0 -20   XYZ
    dof rx ry rz
    limits (-160.0 20.0)
           (-70.0 70.0)
           (-70.0 60.0)
  end
  begin
     id 8 
     name rtibia
     direction -0.34202 -0.939693 0   
     length 6.6862   
     axis 0 0 -20   XYZ
    dof rx
    limits (-10.0 170.0)
 end
 begin
     id 9 
     name rfoot
     direction -0.0949739 -0.260939 0.960672   
     length 1.67698  
     axis -90 -7.62852e-016 -20   XYZ
    dof rx rz
    limits (-45.0 90.0)
           (-20.0 70.0)
  end
  begin
     id 10 
     name rtoes
     direction -1.5353e-011 -4.21868e-011 1   
     length 0.846298   
     axis -90 -7.62852e-016 -20   XYZ
    dof rx
    limits (-90.0 20.0)
  end
  begin
     id 11 
     name lowerback
     direction -0.0206828 0.999785 -0.00109866   
     length 2.04382   
     axis 0 0 0   XYZ
    dof rx ry rz
    limits (-20.0 45.0)
           (-30.0 30.0)
           (-30.0 30.0)
  end
  begin
     id 12 
     name upperback
     direction -0.0105003 0.999727 -0.0208904   
     length 2.04538   
     axis 0 0 0   XYZ
    dof rx ry rz
    limits (-20.0 45.0)
           (-30.0 30.0)
           (-30.0 30.0)
  end
  begin
     id 13 
     name thorax
     direction -0.000416255 0.999808 -0.0196023   
     length 2.0399   
     axis 0 0 0   XYZ
    dof rx ry rz
    limits (-20.0 45.0)
           (-30.0 30.0)
           (-30.0 30.0)
  end
  begin
     id 14 
     name lowerneck
     direction 0.0627861 0.989205 0.13241   
     length 1.46207   
     axis 0 0 0   XYZ
    dof rx ry rz
    limits (-20.0 45.0)
           (-30.0 30.0)
           (-30.0 30.0)
  end
  begin
     id 15 
     name upperneck
     direction 0.00627179 0.994526 0.104303   
     length 1.41419   
     axis 0 0 0   XYZ
    dof rx ry rz
    limits (-20.0 45.0)
           (-30.0 30.0)
           (-30.0 30.0)
  end
  begin
     id 16
     name head
     direction -0.00443838 0.999688 0.0245968  
     length 1.50718  
     axis 0 0 0   XYZ
    dof rx ry rz
    limits (-20.0 45.0)
           (-30.0 30.0)
           (-30.0 30.0)
  end
  begin
     id 17 
     name lclavicle
     direction 0.758742 0.650995 -0.0227258  
     length 2.86888  
     axis 0 0 0   XYZ
    dof ry rz
    limits (-20.0 10.0)
           (0.0 20.0)
  end
  begin
     id 18 
     name lhumerus
     direction 1 -4.48962e-011 1.06664e-027   
     length 4.65776   
     axis -180 -30 -90   XYZ
    dof rx ry rz
    limits (-60.0 90.0)
           (-90.0 90.0)
           (-90.0 90.0)
  end
  begin
     id 19
     name lradius
     direction 1 -4.48968e-011 1.40404e-026   
     length 3.55539   
     axis -180 -30 -90   XYZ
    dof rx
    limits (-10.0 170.0)
  end
  begin
     id 20
     name lwrist
     direction 1 -4.48976e-011 3.32647e-026   
     length 1.77769   
     axis -2.20186e-014 90 90   XYZ
    dof ry
    limits (-180.0 0.0)
 end
  begin
     id 21 
     name lhand
     direction 1 -4.48982e-011 6.65293e-026   
     length 0.707264   
     axis -4.24514e-014 90 90   XYZ
    dof rx rz
    limits (-90.0 90.0)
           (-45.0 45.0)
  end
  begin
     id 22 
     name lfingers
     direction 1 -4.48966e-011 1.33059e-025   
     length 0.570215   
     axis -8.49028e-014 90 90   XYZ
    dof rx
    limits (0.0 90.0)
  end
  begin
     id 23
     name lthumb
     direction 0.707107 -6.3493e-011 0.707107   
     length 0.818718   
     axis -90 45 2.85299e-015   XYZ
    dof rx rz
    limits (-45.0 45.0)
           (-45.0 45.0)
  end
  begin
     id 24 
     name rclavicle
     direction -0.870343 0.482028 -0.100759   
     length 3.2251  
     axis 0 0 0   XYZ 
    dof ry rz
    limits (-10.0 20.0)
           (-20.0 0.0)
  end
  begin
     id 25 
     name rhumerus
     direction -1 -4.48974e-011 -9.45849e-028  
     length 4.71925   
     axis -180 30 90   XYZ
    dof rx ry rz
    limits (-90.0 60.0)
           (-90.0 90.0)
           (-90.0 90.0)
  end
  begin
     id 26 
     name rradius
     direction -1 -4.48965e-011 1.17607e-026   
     length 3.5699   
     axis -180 30 90   XYZ
    dof rx
    limits (-10.0 170.0)
  end
  begin
     id 27 
     name rwrist
     direction -1 -4.48968e-011 3.32647e-026   
     length 1.78495   
     axis -2.20186e-014 -90 -90   XYZ
    dof ry
    limits (-180.0 0.0)
  end
  begin
     id 28
     name rhand
     direction -1 -4.48995e-011 6.65293e-026   
     length 0.507757   
     axis -4.24514e-014 -90 -90   XYZ
    dof rx rz
    limits (-90.0 90.0)
           (-45.0 45.0)
  end
  begin
     id 29
     name rfingers
     direction -1 -4.48864e-011 1.33059e-025   
     length 0.409367   
     axis -8.49028e-014 -90 -90   XYZ
    dof rx
    limits (0.0 90.0)
  end
  begin
     id 30
     name rthumb
     direction -0.707107 -6.3494e-011 0.707107   
     length 0.587771   
     axis -90 -45 -2.85299e-015   XYZ
    dof rx rz
    limits (-45.0 45.0)
           (-45.0 45.0)
  end
:hierarchy
  begin
    root lhipjoint rhipjoint lowerback
    lhipjoint lfemur
    lfemur ltibia
    ltibia lfoot
    lfoot ltoes
    rhipjoint rfemur
    rfemur rtibia
    rtibia rfoot
    rfoot rtoes
    lowerback upperback
    upperback thorax
    thorax lowerneck lclavicle rclavicle
    lowerneck upperneck
    upperneck head
    lclavicle lhumerus
    lhumerus lradius
    lradius lwrist
    lwrist lhand lthumb
    lhand lfingers
    rclavicle rhumerus
    rhumerus rradius
    rradius rwrist
    rwrist rhand rthumb
    rhand rfingers
  end

#!OML:ASF E:\Steps\Project 1\Capture day 1\Session 2\Subject.ASF
:FULLY-SPECIFIED
:DEGREES
48
root -1.25281 19.6303 20.5458 -152.342 -2.45757 178.935
lowerback -28.6276 -2.34804 -6.50971
upperback -1.77382 -1.69369 0.0367875
thorax 13.3082 -1.43693 2.87373
lowerneck -0.760513 -4.62895 -0.240813
upperneck 8.06266 -6.75449 3.29431
head 2.83221 -3.38572 0.905026
rclavicle 1.42131e-014 7.95139e-016
rhumerus -39.1374 -18.6711 -77.8098
rradius 32.2477
rwrist -3.99085
rhand -3.5858 -56.861
rfingers 7.12502
rthumb 22.1517 -85.6119
lclavicle 1.42131e-014 7.95139e-016
lhumerus -30.3694 0.687761 81.9687
lradius 21.5642
lwrist 0.981513
lhand -21.4542 -11.4092
lfingers 7.12502
lthumb 4.93576 18.5133
rfemur -26.7364 6.36319 20.2561
rtibia 10.7904
rfoot -20.6548 -5.58383
rtoes -17.5883
lfemur -26.2613 -7.78511 -22.4283
ltibia 11.6981
lfoot -9.43426 -1.90134
ltoes -9.4002
49
root -1.2506 19.6291 20.547 -152.33 -2.44025 178.969
lowerback -28.5991 -2.3458 -6.51845
upperback -1.78883 -1.69464 0.0600819
thorax 13.2792 -1.43784 2.90426
lowerneck -0.976197 -4.66148 -0.370814
upperneck 8.5122 -6.84028 3.34256
head 3.03447 -3.43076 0.929107
rclavicle -1.09332e-015 2.38542e-015
rhumerus -39.1815 -18.6148 -77.8172
rradius 32.3112
rwrist -4.02743
rhand -3.47554 -56.899
rfingers 7.12502
rthumb 22.2575 -85.6373
lclavicle -1.09332e-015 2.38542e-015
lhumerus -30.4295 0.552317 82.0167
lradius 21.6638
lwrist 1.06601
lhand -21.4063 -11.3681
lfingers 7.12502
lthumb 4.98207 18.5533
rfemur -26.8539 6.03593 20.4041
rtibia 10.99
rfoot -19.222 -5.48279
rtoes -23.4923
lfemur -26.409 -7.82588 -22.3565
ltibia 11.9374
lfoot -9.57773 -1.92996
ltoes -7.62612
50
root -1.24953 19.6278 20.5455 -152.341 -2.3909 179.017
lowerback -28.5825 -2.33265 -6.50445
upperback -1.79784 -1.6872 0.0851716
thorax 13.2615 -1.43386 2.92728
lowerneck -1.06243 -4.63487 -0.414477
upperneck 8.75789 -6.81168 3.20764
head 3.12959 -3.42177 0.888903
rclavicle -1.09332e-015 -1.90833e-014
rhumerus -39.2032 -18.6311 -77.7693
rradius 32.3069
rwrist -3.95405
rhand -3.31645 -56.6419
rfingers 7.12502
rthumb 22.4102 -85.3619
lclavicle -1.09332e-015 -1.90833e-014
lhumerus -30.4561 0.527738 82.0589
lradius 21.6834
lwrist 0.88817
lhand -21.6072 -11.2121
lfingers 7.12502
lthumb 4.78804 18.7138
rfemur -26.8496 6.19024 20.4239
rtibia 11
rfoot -20.7694 -5.33321
rtoes -17.5553
lfemur -26.4457 -7.90676 -22.2829
ltibia 12.0425
lfoot -9.61756 -1.81529
ltoes -7.36699
51
root -1.24879 19.6268 20.541 -152.39 -2.32756 179.056
lowerback -28.5798 -2.33844 -6.48088
upperback -1.77182 -1.69979 0.105474
thorax 13.2921 -1.43812 2.93187
lowerneck -1.30761 -4.56515 -0.432295
upperneck 9.178 -6.72785 2.96688
head 3.30825 -3.38637 0.805677
rclavicle -1.44119e-014 4.77083e-015
rhumerus -39.198 -18.571 -77.7741
rradius 32.3395
rwrist -3.94956
rhand -3.23085 -56.6407
rfingers 7.12502
rthumb 22.4924 -85.3508
lclavicle -1.44119e-014 4.77083e-015
lhumerus -30.4742 0.44708 82.1302
lradius 21.7141
lwrist 0.953615
lhand -21.8271 -11.0261
lfingers 7.12502
lthumb 4.57571 18.9045
rfemur -26.7987 6.24689 20.4566
rtibia 11.0304
rfoot -19.3234 -5.5155
rtoes -23.611
lfemur -26.3998 -7.97619 -22.2396
ltibia 12.1175
lfoot -9.74549 -1.62371
ltoes -9.01459
52
root -1.24828 19.6265 20.5361 -152.492 -2.29145 179.057
lowerback -28.5221 -2.37511 -6.46666
upperback -1.72182 -1.74624 0.117692
thorax 13.3285 -1.45635 2.9216
lowerneck -0.415603 -5.48059 0.115944
upperneck 7.60161 -7.32647 3.1094
head 2.60126 -3.45617 0.794842
rclavicle -5.86415e-015 1.47101e-014
rhumerus -39.131 -18.4661 -77.8207
rradius 32.3311
rwrist -4.01236
rhand -3.18941 -56.6694
rfingers 7.12502
rthumb 22.5322 -85.3746
lclavicle -5.86415e-015 1.47101e-014
lhumerus -30.4906 0.209897 82.2254
lradius 21.7628
lwrist 1.2919
lhand -21.9689 -10.8652
lfingers 7.12502
lthumb 4.43876 19.0682
rfemur -26.6607 6.19893 20.4706
rtibia 10.9736
rfoot -20.7678 -5.14078
rtoes -17.2206
lfemur -26.3355 -8.08205 -22.2371
ltibia 12.2768
lfoot -10.0058 -1.44486
ltoes -10.0153
53
root -1.24438 19.6244 20.5363 -152.497 -2.24987 179.014
lowerback -28.4748 -2.43041 -6.545
upperback -1.71374 -1.79637 0.132731
thorax 13.3229 -1.483 2.96251
lowerneck -0.473405 -5.446 0.151683
upperneck 7.66614 -7.27725 3.00509
head 2.626 -3.43229 0.754713
rclavicle 1.19271e-014 4.77083e-015
rhumerus -39.0682 -18.473 -77.8201
rradius 32.3148
rwrist -3.92669
rhand -3.10721 -56.5036
rfingers 7.12502
rthumb 22.6111 -85.1993
lclavicle 1.19271e-014 4.77083e-015
lhumerus -30.4813 0.100836 82.2541
lradius 21.7906
lwrist 1.51269
lhand -21.8649 -10.8012
lfingers 7.12502
lthumb 4.53925 19.1302
rfemur -26.6447 6.29228 20.4054
rtibia 10.9177
rfoot -19.2493 -5.44065
rtoes -23.0445
lfemur -26.4282 -8.07066 -22.2822
ltibia 12.4779
lfoot -10.0761 -1.48189
ltoes -8.971
54
root -1.24206 19.6223 20.5328 -152.512 -2.12222 179.047
lowerback -28.4755 -2.41294 -6.52795
upperback -1.68907 -1.77501 0.135593
thorax 13.3494 -1.47219 2.96453
lowerneck -0.757661 -5.31126 0.0215904
upperneck 8.10694 -7.09624 2.97375
head 2.82738 -3.33196 0.758815
rclavicle -7.55382e-015 6.75868e-015
rhumerus -39.0846 -18.4498 -77.8541
rradius 32.4398
rwrist -3.88483
rhand -2.88685 -56.6561
rfingers 7.12502
rthumb 22.8226 -85.3259
lclavicle -7.55382e-015 6.75868e-015
lhumerus -30.4301 0.213348 82.1976
lradius 21.7687
lwrist 1.5513
lhand -21.652 -10.9502
lfingers 7.12502
lthumb 4.74485 18.9766
rfemur -26.6486 6.42591 20.4175
rtibia 10.9707
rfoot -20.7529 -5.22084
rtoes -17.0178
lfemur -26.4477 -7.97689 -22.2799
ltibia 12.5929
lfoot -10.0151 -1.44717
ltoes -8.90191
